<mxfile host="app.diagrams.net" agent="Mozilla/5.0 (Macintosh; Intel Mac OS X 10_15_7) AppleWebKit/537.36 (KHTML, like Gecko) Chrome/134.0.0.0 Safari/537.36 OPR/119.0.0.0" version="27.1.3" pages="2">
  <diagram id="Kx33KlGFL2RAI9X3295d" name="Problem">
    <mxGraphModel dx="1766" dy="1111" grid="0" gridSize="10" guides="1" tooltips="1" connect="1" arrows="1" fold="1" page="0" pageScale="1" pageWidth="827" pageHeight="1169" math="0" shadow="0">
      <root>
        <mxCell id="0" />
        <mxCell id="1" parent="0" />
        <mxCell id="AIRgtsEmwU7N2GugSFp--2" value="" style="rounded=1;whiteSpace=wrap;html=1;fillColor=#e1d5e7;strokeColor=#9673a6;" parent="1" vertex="1">
          <mxGeometry x="44.5" y="525" width="120" height="60" as="geometry" />
        </mxCell>
        <mxCell id="wSORsGMZiU4wdRGppfEa-10" value="" style="ellipse;whiteSpace=wrap;html=1;aspect=fixed;fillColor=#f8cecc;strokeColor=#b85450;opacity=30;dashed=1;dashPattern=8 8;" parent="1" vertex="1">
          <mxGeometry x="80" y="-30" width="520" height="520" as="geometry" />
        </mxCell>
        <mxCell id="AsaHIxcU1w09-bWBaoxH-2" value="Retail" style="text;html=1;align=left;verticalAlign=middle;whiteSpace=wrap;rounded=0;" parent="1" vertex="1">
          <mxGeometry x="30" y="140" width="60" height="30" as="geometry" />
        </mxCell>
        <mxCell id="AsaHIxcU1w09-bWBaoxH-3" value="Posonline" style="text;html=1;align=left;verticalAlign=middle;whiteSpace=wrap;rounded=0;" parent="1" vertex="1">
          <mxGeometry x="690" y="950" width="60" height="30" as="geometry" />
        </mxCell>
        <mxCell id="AsaHIxcU1w09-bWBaoxH-4" value="KiotQR" style="text;html=1;align=left;verticalAlign=middle;whiteSpace=wrap;rounded=0;" parent="1" vertex="1">
          <mxGeometry x="690" y="1030" width="60" height="30" as="geometry" />
        </mxCell>
        <mxCell id="AsaHIxcU1w09-bWBaoxH-5" value="Fbpos" style="text;html=1;align=left;verticalAlign=middle;whiteSpace=wrap;rounded=0;" parent="1" vertex="1">
          <mxGeometry x="690" y="1110" width="60" height="30" as="geometry" />
        </mxCell>
        <mxCell id="AsaHIxcU1w09-bWBaoxH-14" value="" style="curved=1;endArrow=classic;html=1;rounded=0;entryX=0;entryY=0.5;entryDx=0;entryDy=0;exitX=1;exitY=0.5;exitDx=0;exitDy=0;" parent="1" source="AsaHIxcU1w09-bWBaoxH-2" target="AsaHIxcU1w09-bWBaoxH-6" edge="1">
          <mxGeometry width="50" height="50" relative="1" as="geometry">
            <mxPoint x="90" y="100" as="sourcePoint" />
            <mxPoint x="140" y="50" as="targetPoint" />
            <Array as="points">
              <mxPoint x="140" y="100" />
            </Array>
          </mxGeometry>
        </mxCell>
        <mxCell id="AsaHIxcU1w09-bWBaoxH-15" value="" style="curved=1;endArrow=classic;html=1;rounded=0;exitX=1;exitY=0.5;exitDx=0;exitDy=0;entryX=0;entryY=0.5;entryDx=0;entryDy=0;" parent="1" source="AsaHIxcU1w09-bWBaoxH-2" target="AsaHIxcU1w09-bWBaoxH-10" edge="1">
          <mxGeometry width="50" height="50" relative="1" as="geometry">
            <mxPoint x="100" y="220" as="sourcePoint" />
            <mxPoint x="150" y="170" as="targetPoint" />
            <Array as="points">
              <mxPoint x="110" y="130" />
            </Array>
          </mxGeometry>
        </mxCell>
        <mxCell id="AsaHIxcU1w09-bWBaoxH-16" value="Posonline" style="text;html=1;align=left;verticalAlign=middle;whiteSpace=wrap;rounded=0;" parent="1" vertex="1">
          <mxGeometry x="600" y="140" height="30" as="geometry" />
        </mxCell>
        <mxCell id="AsaHIxcU1w09-bWBaoxH-23" value="" style="curved=1;endArrow=classic;html=1;rounded=0;entryX=1;entryY=0.5;entryDx=0;entryDy=0;exitX=1;exitY=0.5;exitDx=0;exitDy=0;" parent="1" source="AsaHIxcU1w09-bWBaoxH-16" target="AsaHIxcU1w09-bWBaoxH-18" edge="1">
          <mxGeometry width="50" height="50" relative="1" as="geometry">
            <mxPoint x="304" y="100" as="sourcePoint" />
            <mxPoint x="354" y="50" as="targetPoint" />
            <Array as="points">
              <mxPoint x="550" y="95" />
            </Array>
          </mxGeometry>
        </mxCell>
        <mxCell id="AsaHIxcU1w09-bWBaoxH-24" value="" style="curved=1;endArrow=classic;html=1;rounded=0;exitX=1;exitY=0.5;exitDx=0;exitDy=0;entryX=1;entryY=0.5;entryDx=0;entryDy=0;" parent="1" source="AsaHIxcU1w09-bWBaoxH-16" target="AsaHIxcU1w09-bWBaoxH-22" edge="1">
          <mxGeometry width="50" height="50" relative="1" as="geometry">
            <mxPoint x="314" y="220" as="sourcePoint" />
            <mxPoint x="364" y="170" as="targetPoint" />
            <Array as="points">
              <mxPoint x="550" y="125" />
            </Array>
          </mxGeometry>
        </mxCell>
        <mxCell id="AsaHIxcU1w09-bWBaoxH-25" value="KiotQR" style="text;html=1;align=left;verticalAlign=middle;whiteSpace=wrap;rounded=0;" parent="1" vertex="1">
          <mxGeometry x="30" y="335" width="60" height="30" as="geometry" />
        </mxCell>
        <mxCell id="AsaHIxcU1w09-bWBaoxH-32" value="" style="curved=1;endArrow=classic;html=1;rounded=0;entryX=0;entryY=0.5;entryDx=0;entryDy=0;exitX=1;exitY=0.5;exitDx=0;exitDy=0;" parent="1" source="AsaHIxcU1w09-bWBaoxH-25" target="AsaHIxcU1w09-bWBaoxH-27" edge="1">
          <mxGeometry width="50" height="50" relative="1" as="geometry">
            <mxPoint x="90" y="295" as="sourcePoint" />
            <mxPoint x="140" y="245" as="targetPoint" />
            <Array as="points" />
          </mxGeometry>
        </mxCell>
        <mxCell id="AsaHIxcU1w09-bWBaoxH-33" value="" style="curved=1;endArrow=classic;html=1;rounded=0;exitX=1;exitY=0.5;exitDx=0;exitDy=0;entryX=0;entryY=0.5;entryDx=0;entryDy=0;" parent="1" source="AsaHIxcU1w09-bWBaoxH-25" target="AsaHIxcU1w09-bWBaoxH-31" edge="1">
          <mxGeometry width="50" height="50" relative="1" as="geometry">
            <mxPoint x="100" y="415" as="sourcePoint" />
            <mxPoint x="150" y="365" as="targetPoint" />
            <Array as="points">
              <mxPoint x="110" y="325" />
            </Array>
          </mxGeometry>
        </mxCell>
        <mxCell id="AsaHIxcU1w09-bWBaoxH-34" value="Fbpos" style="text;html=1;align=left;verticalAlign=middle;whiteSpace=wrap;rounded=0;" parent="1" vertex="1">
          <mxGeometry x="600" y="340" width="60" height="30" as="geometry" />
        </mxCell>
        <mxCell id="AsaHIxcU1w09-bWBaoxH-41" value="" style="curved=1;endArrow=classic;html=1;rounded=0;entryX=1;entryY=0.5;entryDx=0;entryDy=0;exitX=0;exitY=0.5;exitDx=0;exitDy=0;" parent="1" source="AsaHIxcU1w09-bWBaoxH-34" target="AsaHIxcU1w09-bWBaoxH-36" edge="1">
          <mxGeometry width="50" height="50" relative="1" as="geometry">
            <mxPoint x="540" y="305" as="sourcePoint" />
            <mxPoint x="354" y="240" as="targetPoint" />
            <Array as="points" />
          </mxGeometry>
        </mxCell>
        <mxCell id="AsaHIxcU1w09-bWBaoxH-42" value="" style="curved=1;endArrow=classic;html=1;rounded=0;entryX=1;entryY=0.5;entryDx=0;entryDy=0;exitX=0;exitY=0.5;exitDx=0;exitDy=0;" parent="1" source="AsaHIxcU1w09-bWBaoxH-34" target="AsaHIxcU1w09-bWBaoxH-40" edge="1">
          <mxGeometry width="50" height="50" relative="1" as="geometry">
            <mxPoint x="560" y="310" as="sourcePoint" />
            <mxPoint x="364" y="360" as="targetPoint" />
            <Array as="points">
              <mxPoint x="550" y="295" />
            </Array>
          </mxGeometry>
        </mxCell>
        <mxCell id="AsaHIxcU1w09-bWBaoxH-27" value="Production" style="text;html=1;align=left;verticalAlign=middle;whiteSpace=wrap;rounded=0;" parent="1" vertex="1">
          <mxGeometry x="215" y="390" width="60" height="30" as="geometry" />
        </mxCell>
        <mxCell id="AsaHIxcU1w09-bWBaoxH-28" value="Staging" style="text;html=1;align=left;verticalAlign=middle;whiteSpace=wrap;rounded=0;" parent="1" vertex="1">
          <mxGeometry x="220" y="260" width="60" height="30" as="geometry" />
        </mxCell>
        <mxCell id="AsaHIxcU1w09-bWBaoxH-29" value="Develop" style="text;html=1;align=left;verticalAlign=middle;whiteSpace=wrap;rounded=0;" parent="1" vertex="1">
          <mxGeometry x="220" y="300" width="60" height="30" as="geometry" />
        </mxCell>
        <mxCell id="AsaHIxcU1w09-bWBaoxH-30" value="Sandbox" style="text;html=1;align=left;verticalAlign=middle;whiteSpace=wrap;rounded=0;" parent="1" vertex="1">
          <mxGeometry x="220" y="340" width="60" height="30" as="geometry" />
        </mxCell>
        <mxCell id="AsaHIxcU1w09-bWBaoxH-31" value="" style="rounded=1;whiteSpace=wrap;html=1;fontColor=default;fillColor=none;dashed=1;" parent="1" vertex="1">
          <mxGeometry x="200" y="255" width="90" height="120" as="geometry" />
        </mxCell>
        <mxCell id="AsaHIxcU1w09-bWBaoxH-6" value="Production" style="text;html=1;align=left;verticalAlign=middle;whiteSpace=wrap;rounded=0;" parent="1" vertex="1">
          <mxGeometry x="215" y="15" width="60" height="30" as="geometry" />
        </mxCell>
        <mxCell id="AsaHIxcU1w09-bWBaoxH-7" value="Staging" style="text;html=1;align=left;verticalAlign=middle;whiteSpace=wrap;rounded=0;" parent="1" vertex="1">
          <mxGeometry x="220" y="65" width="60" height="30" as="geometry" />
        </mxCell>
        <mxCell id="AsaHIxcU1w09-bWBaoxH-8" value="Develop" style="text;html=1;align=left;verticalAlign=middle;whiteSpace=wrap;rounded=0;" parent="1" vertex="1">
          <mxGeometry x="220" y="105" width="60" height="30" as="geometry" />
        </mxCell>
        <mxCell id="AsaHIxcU1w09-bWBaoxH-9" value="Sandbox" style="text;html=1;align=left;verticalAlign=middle;whiteSpace=wrap;rounded=0;" parent="1" vertex="1">
          <mxGeometry x="220" y="145" width="60" height="30" as="geometry" />
        </mxCell>
        <mxCell id="AsaHIxcU1w09-bWBaoxH-10" value="" style="rounded=1;whiteSpace=wrap;html=1;fontColor=default;fillColor=none;dashed=1;" parent="1" vertex="1">
          <mxGeometry x="200" y="60" width="90" height="120" as="geometry" />
        </mxCell>
        <mxCell id="AsaHIxcU1w09-bWBaoxH-18" value="Production" style="text;html=1;align=left;verticalAlign=middle;whiteSpace=wrap;rounded=0;" parent="1" vertex="1">
          <mxGeometry x="429" y="15" width="60" height="30" as="geometry" />
        </mxCell>
        <mxCell id="AsaHIxcU1w09-bWBaoxH-19" value="Staging" style="text;html=1;align=left;verticalAlign=middle;whiteSpace=wrap;rounded=0;" parent="1" vertex="1">
          <mxGeometry x="434" y="65" width="60" height="30" as="geometry" />
        </mxCell>
        <mxCell id="AsaHIxcU1w09-bWBaoxH-20" value="Develop" style="text;html=1;align=left;verticalAlign=middle;whiteSpace=wrap;rounded=0;" parent="1" vertex="1">
          <mxGeometry x="434" y="105" width="60" height="30" as="geometry" />
        </mxCell>
        <mxCell id="AsaHIxcU1w09-bWBaoxH-21" value="Sandbox" style="text;html=1;align=left;verticalAlign=middle;whiteSpace=wrap;rounded=0;" parent="1" vertex="1">
          <mxGeometry x="434" y="145" width="60" height="30" as="geometry" />
        </mxCell>
        <mxCell id="AsaHIxcU1w09-bWBaoxH-22" value="" style="rounded=1;whiteSpace=wrap;html=1;fontColor=default;fillColor=none;dashed=1;" parent="1" vertex="1">
          <mxGeometry x="414" y="60" width="90" height="120" as="geometry" />
        </mxCell>
        <mxCell id="AsaHIxcU1w09-bWBaoxH-36" value="Production" style="text;html=1;align=left;verticalAlign=middle;whiteSpace=wrap;rounded=0;" parent="1" vertex="1">
          <mxGeometry x="434" y="385" width="60" height="30" as="geometry" />
        </mxCell>
        <mxCell id="AsaHIxcU1w09-bWBaoxH-37" value="Staging" style="text;html=1;align=left;verticalAlign=middle;whiteSpace=wrap;rounded=0;" parent="1" vertex="1">
          <mxGeometry x="434" y="255" width="60" height="30" as="geometry" />
        </mxCell>
        <mxCell id="AsaHIxcU1w09-bWBaoxH-38" value="Develop" style="text;html=1;align=left;verticalAlign=middle;whiteSpace=wrap;rounded=0;" parent="1" vertex="1">
          <mxGeometry x="434" y="295" width="60" height="30" as="geometry" />
        </mxCell>
        <mxCell id="AsaHIxcU1w09-bWBaoxH-39" value="Sandbox" style="text;html=1;align=left;verticalAlign=middle;whiteSpace=wrap;rounded=0;" parent="1" vertex="1">
          <mxGeometry x="434" y="335" width="60" height="30" as="geometry" />
        </mxCell>
        <mxCell id="AsaHIxcU1w09-bWBaoxH-40" value="" style="rounded=1;whiteSpace=wrap;html=1;fontColor=default;fillColor=none;dashed=1;" parent="1" vertex="1">
          <mxGeometry x="414" y="250" width="90" height="120" as="geometry" />
        </mxCell>
        <mxCell id="AsaHIxcU1w09-bWBaoxH-45" value="" style="ellipse;whiteSpace=wrap;html=1;aspect=fixed;fillColor=#dae8fc;dashed=1;strokeColor=#6c8ebf;opacity=70;" parent="1" vertex="1">
          <mxGeometry x="240" y="105" width="225" height="225" as="geometry" />
        </mxCell>
        <mxCell id="wSORsGMZiU4wdRGppfEa-3" value="" style="shape=image;verticalLabelPosition=bottom;labelBackgroundColor=default;verticalAlign=top;aspect=fixed;imageAspect=0;image=https://global-uploads.webflow.com/6203daf47137054c031fa0e6/64071d4ee3e10617c9106129_consul.png;fontStyle=1" parent="1" vertex="1">
          <mxGeometry x="325.5" y="242" width="50" height="50" as="geometry" />
        </mxCell>
        <mxCell id="wSORsGMZiU4wdRGppfEa-4" value="" style="shape=image;verticalLabelPosition=bottom;labelBackgroundColor=default;verticalAlign=top;aspect=fixed;imageAspect=0;image=https://plmlab.math.cnrs.fr/uploads/-/system/project/avatar/1748/nomad.png;fontStyle=1" parent="1" vertex="1">
          <mxGeometry x="375.5" y="247" width="40" height="40" as="geometry" />
        </mxCell>
        <mxCell id="wSORsGMZiU4wdRGppfEa-5" value="" style="shape=image;verticalLabelPosition=bottom;labelBackgroundColor=default;verticalAlign=top;aspect=fixed;imageAspect=0;image=https://www.svgrepo.com/show/448679/vault.svg;" parent="1" vertex="1">
          <mxGeometry x="287.5" y="248" width="38" height="38" as="geometry" />
        </mxCell>
        <mxCell id="wSORsGMZiU4wdRGppfEa-6" value="" style="rounded=1;whiteSpace=wrap;html=1;fillColor=#fff2cc;strokeColor=#d6b656;opacity=25;" parent="1" vertex="1">
          <mxGeometry x="277.5" y="237" width="150" height="60" as="geometry" />
        </mxCell>
        <mxCell id="wSORsGMZiU4wdRGppfEa-8" value="Monitoring" style="text;html=1;align=center;verticalAlign=middle;whiteSpace=wrap;rounded=0;" parent="1" vertex="1">
          <mxGeometry x="325.5" y="295" width="60" height="30" as="geometry" />
        </mxCell>
        <mxCell id="wSORsGMZiU4wdRGppfEa-9" value="" style="group" parent="1" vertex="1" connectable="0">
          <mxGeometry x="275" y="130" width="150" height="92" as="geometry" />
        </mxCell>
        <mxCell id="eWvJEmdr2_q2JQ8NlvkR-1" value="" style="shape=image;verticalLabelPosition=bottom;labelBackgroundColor=default;verticalAlign=top;aspect=fixed;imageAspect=0;image=https://global-uploads.webflow.com/6203daf47137054c031fa0e6/64071d4ee3e10617c9106129_consul.png;fontStyle=1" parent="wSORsGMZiU4wdRGppfEa-9" vertex="1">
          <mxGeometry x="48" y="5" width="50" height="50" as="geometry" />
        </mxCell>
        <mxCell id="kK03mrNO8zoLVirMwpUY-1" value="" style="shape=image;verticalLabelPosition=bottom;labelBackgroundColor=default;verticalAlign=top;aspect=fixed;imageAspect=0;image=https://plmlab.math.cnrs.fr/uploads/-/system/project/avatar/1748/nomad.png;fontStyle=1" parent="wSORsGMZiU4wdRGppfEa-9" vertex="1">
          <mxGeometry x="98" y="10" width="40" height="40" as="geometry" />
        </mxCell>
        <mxCell id="wSORsGMZiU4wdRGppfEa-1" value="" style="shape=image;verticalLabelPosition=bottom;labelBackgroundColor=default;verticalAlign=top;aspect=fixed;imageAspect=0;image=https://www.svgrepo.com/show/448679/vault.svg;" parent="wSORsGMZiU4wdRGppfEa-9" vertex="1">
          <mxGeometry x="10" y="11" width="38" height="38" as="geometry" />
        </mxCell>
        <mxCell id="wSORsGMZiU4wdRGppfEa-2" value="" style="rounded=1;whiteSpace=wrap;html=1;fillColor=#d5e8d4;strokeColor=#82b366;opacity=25;" parent="wSORsGMZiU4wdRGppfEa-9" vertex="1">
          <mxGeometry width="150" height="60" as="geometry" />
        </mxCell>
        <mxCell id="wSORsGMZiU4wdRGppfEa-7" value="App" style="text;html=1;align=center;verticalAlign=middle;whiteSpace=wrap;rounded=0;" parent="wSORsGMZiU4wdRGppfEa-9" vertex="1">
          <mxGeometry x="43" y="62" width="60" height="30" as="geometry" />
        </mxCell>
        <mxCell id="2JdUdqRK76ogy-2T3I79-1" value="" style="shape=image;verticalLabelPosition=bottom;labelBackgroundColor=default;verticalAlign=top;aspect=fixed;imageAspect=0;image=https://static-00.iconduck.com/assets.00/ansible-icon-2048x2048-mc4z634w.png;" parent="1" vertex="1">
          <mxGeometry x="56" y="545" width="30" height="30" as="geometry" />
        </mxCell>
        <mxCell id="AIRgtsEmwU7N2GugSFp--1" value="" style="shape=image;verticalLabelPosition=bottom;labelBackgroundColor=default;verticalAlign=top;aspect=fixed;imageAspect=0;image=https://gitlab.com/uploads/-/system/project/avatar/11674053/gitlab-ci-cd-logo_2x.png;" parent="1" vertex="1">
          <mxGeometry x="110.75999999999999" y="535" width="44.74" height="50" as="geometry" />
        </mxCell>
        <mxCell id="AIRgtsEmwU7N2GugSFp--4" value="Configuration - Provision -Deploying" style="text;html=1;align=center;verticalAlign=middle;whiteSpace=wrap;rounded=0;" parent="1" vertex="1">
          <mxGeometry x="-10" y="585" width="234.5" height="30" as="geometry" />
        </mxCell>
        <mxCell id="AIRgtsEmwU7N2GugSFp--6" value="" style="curved=1;endArrow=classic;html=1;rounded=0;exitX=1;exitY=0.5;exitDx=0;exitDy=0;entryX=0.5;entryY=1;entryDx=0;entryDy=0;" parent="1" source="AIRgtsEmwU7N2GugSFp--2" target="wSORsGMZiU4wdRGppfEa-10" edge="1">
          <mxGeometry width="50" height="50" relative="1" as="geometry">
            <mxPoint x="210" y="570" as="sourcePoint" />
            <mxPoint x="260" y="520" as="targetPoint" />
            <Array as="points">
              <mxPoint x="260" y="570" />
              <mxPoint x="210" y="520" />
            </Array>
          </mxGeometry>
        </mxCell>
      </root>
    </mxGraphModel>
  </diagram>
  <diagram name="Overview" id="dLwagWigHJylYRhr7byR">
    <mxGraphModel dx="1138" dy="593" grid="1" gridSize="10" guides="1" tooltips="1" connect="1" arrows="1" fold="1" page="1" pageScale="1" pageWidth="827" pageHeight="1169" math="0" shadow="0">
      <root>
        <mxCell id="0" />
        <mxCell id="1" parent="0" />
        <mxCell id="tNFwPxHahsIE7E5-N7TA-23" value="" style="rounded=1;whiteSpace=wrap;html=1;fillColor=none;" vertex="1" parent="1">
          <mxGeometry x="538" y="340" width="120" height="50" as="geometry" />
        </mxCell>
        <mxCell id="6gbyXBsQ23gUGzirkuGh-1" value="" style="shape=image;verticalLabelPosition=bottom;labelBackgroundColor=default;verticalAlign=top;aspect=fixed;imageAspect=0;image=https://cdn-icons-png.flaticon.com/512/9131/9131478.png;" vertex="1" parent="1">
          <mxGeometry x="20" y="207.5" width="40" height="40" as="geometry" />
        </mxCell>
        <mxCell id="tNFwPxHahsIE7E5-N7TA-8" value="" style="group" vertex="1" connectable="0" parent="1">
          <mxGeometry x="200" y="150" width="56" height="170" as="geometry" />
        </mxCell>
        <mxCell id="tNFwPxHahsIE7E5-N7TA-7" value="&lt;span style=&quot;color: rgba(0, 0, 0, 0); font-family: monospace; font-size: 0px; text-align: start; text-wrap-mode: nowrap;&quot;&gt;%3CmxGraphModel%3E%3Croot%3E%3CmxCell%20id%3D%220%22%2F%3E%3CmxCell%20id%3D%221%22%20parent%3D%220%22%2F%3E%3CmxCell%20id%3D%222%22%20value%3D%22%22%20style%3D%22group%22%20vertex%3D%221%22%20connectable%3D%220%22%20parent%3D%221%22%3E%3CmxGeometry%20x%3D%22275%22%20y%3D%22130%22%20width%3D%22150%22%20height%3D%2292%22%20as%3D%22geometry%22%2F%3E%3C%2FmxCell%3E%3CmxCell%20id%3D%223%22%20value%3D%22%22%20style%3D%22shape%3Dimage%3BverticalLabelPosition%3Dbottom%3BlabelBackgroundColor%3Ddefault%3BverticalAlign%3Dtop%3Baspect%3Dfixed%3BimageAspect%3D0%3Bimage%3Dhttps%3A%2F%2Fglobal-uploads.webflow.com%2F6203daf47137054c031fa0e6%2F64071d4ee3e10617c9106129_consul.png%3BfontStyle%3D1%22%20vertex%3D%221%22%20parent%3D%222%22%3E%3CmxGeometry%20x%3D%2248%22%20y%3D%225%22%20width%3D%2250%22%20height%3D%2250%22%20as%3D%22geometry%22%2F%3E%3C%2FmxCell%3E%3CmxCell%20id%3D%224%22%20value%3D%22%22%20style%3D%22shape%3Dimage%3BverticalLabelPosition%3Dbottom%3BlabelBackgroundColor%3Ddefault%3BverticalAlign%3Dtop%3Baspect%3Dfixed%3BimageAspect%3D0%3Bimage%3Dhttps%3A%2F%2Fplmlab.math.cnrs.fr%2Fuploads%2F-%2Fsystem%2Fproject%2Favatar%2F1748%2Fnomad.png%3BfontStyle%3D1%22%20vertex%3D%221%22%20parent%3D%222%22%3E%3CmxGeometry%20x%3D%2298%22%20y%3D%2210%22%20width%3D%2240%22%20height%3D%2240%22%20as%3D%22geometry%22%2F%3E%3C%2FmxCell%3E%3CmxCell%20id%3D%225%22%20value%3D%22%22%20style%3D%22shape%3Dimage%3BverticalLabelPosition%3Dbottom%3BlabelBackgroundColor%3Ddefault%3BverticalAlign%3Dtop%3Baspect%3Dfixed%3BimageAspect%3D0%3Bimage%3Dhttps%3A%2F%2Fwww.svgrepo.com%2Fshow%2F448679%2Fvault.svg%3B%22%20vertex%3D%221%22%20parent%3D%222%22%3E%3CmxGeometry%20x%3D%2210%22%20y%3D%2211%22%20width%3D%2238%22%20height%3D%2238%22%20as%3D%22geometry%22%2F%3E%3C%2FmxCell%3E%3CmxCell%20id%3D%226%22%20value%3D%22%22%20style%3D%22rounded%3D1%3BwhiteSpace%3Dwrap%3Bhtml%3D1%3BfillColor%3D%23d5e8d4%3BstrokeColor%3D%2382b366%3Bopacity%3D25%3B%22%20vertex%3D%221%22%20parent%3D%222%22%3E%3CmxGeometry%20width%3D%22150%22%20height%3D%2260%22%20as%3D%22geometry%22%2F%3E%3C%2FmxCell%3E%3CmxCell%20id%3D%227%22%20value%3D%22App%22%20style%3D%22text%3Bhtml%3D1%3Balign%3Dcenter%3BverticalAlign%3Dmiddle%3BwhiteSpace%3Dwrap%3Brounded%3D0%3B%22%20vertex%3D%221%22%20parent%3D%222%22%3E%3CmxGeometry%20x%3D%2243%22%20y%3D%2262%22%20width%3D%2260%22%20height%3D%2230%22%20as%3D%22geometry%22%2F%3E%3C%2FmxCell%3E%3C%2Froot%3E%3C%2FmxGraphModel%3E&lt;/span&gt;" style="rounded=1;whiteSpace=wrap;html=1;fillColor=none;" vertex="1" parent="tNFwPxHahsIE7E5-N7TA-8">
          <mxGeometry width="56" height="170" as="geometry" />
        </mxCell>
        <mxCell id="OEuDP81MHw-EqZbM6up1-1" value="" style="shape=image;verticalLabelPosition=bottom;labelBackgroundColor=default;verticalAlign=top;aspect=fixed;imageAspect=0;image=https://static-00.iconduck.com/assets.00/file-type-nginx-icon-1793x2048-yt5u3fm7.png;" vertex="1" parent="tNFwPxHahsIE7E5-N7TA-8">
          <mxGeometry x="6.110000000000014" y="60" width="43.79" height="50" as="geometry" />
        </mxCell>
        <mxCell id="tNFwPxHahsIE7E5-N7TA-9" value="" style="group" vertex="1" connectable="0" parent="1">
          <mxGeometry x="400" y="150" width="56" height="170" as="geometry" />
        </mxCell>
        <mxCell id="tNFwPxHahsIE7E5-N7TA-10" value="&lt;span style=&quot;color: rgba(0, 0, 0, 0); font-family: monospace; font-size: 0px; text-align: start; text-wrap-mode: nowrap;&quot;&gt;%3CmxGraphModel%3E%3Croot%3E%3CmxCell%20id%3D%220%22%2F%3E%3CmxCell%20id%3D%221%22%20parent%3D%220%22%2F%3E%3CmxCell%20id%3D%222%22%20value%3D%22%22%20style%3D%22group%22%20vertex%3D%221%22%20connectable%3D%220%22%20parent%3D%221%22%3E%3CmxGeometry%20x%3D%22275%22%20y%3D%22130%22%20width%3D%22150%22%20height%3D%2292%22%20as%3D%22geometry%22%2F%3E%3C%2FmxCell%3E%3CmxCell%20id%3D%223%22%20value%3D%22%22%20style%3D%22shape%3Dimage%3BverticalLabelPosition%3Dbottom%3BlabelBackgroundColor%3Ddefault%3BverticalAlign%3Dtop%3Baspect%3Dfixed%3BimageAspect%3D0%3Bimage%3Dhttps%3A%2F%2Fglobal-uploads.webflow.com%2F6203daf47137054c031fa0e6%2F64071d4ee3e10617c9106129_consul.png%3BfontStyle%3D1%22%20vertex%3D%221%22%20parent%3D%222%22%3E%3CmxGeometry%20x%3D%2248%22%20y%3D%225%22%20width%3D%2250%22%20height%3D%2250%22%20as%3D%22geometry%22%2F%3E%3C%2FmxCell%3E%3CmxCell%20id%3D%224%22%20value%3D%22%22%20style%3D%22shape%3Dimage%3BverticalLabelPosition%3Dbottom%3BlabelBackgroundColor%3Ddefault%3BverticalAlign%3Dtop%3Baspect%3Dfixed%3BimageAspect%3D0%3Bimage%3Dhttps%3A%2F%2Fplmlab.math.cnrs.fr%2Fuploads%2F-%2Fsystem%2Fproject%2Favatar%2F1748%2Fnomad.png%3BfontStyle%3D1%22%20vertex%3D%221%22%20parent%3D%222%22%3E%3CmxGeometry%20x%3D%2298%22%20y%3D%2210%22%20width%3D%2240%22%20height%3D%2240%22%20as%3D%22geometry%22%2F%3E%3C%2FmxCell%3E%3CmxCell%20id%3D%225%22%20value%3D%22%22%20style%3D%22shape%3Dimage%3BverticalLabelPosition%3Dbottom%3BlabelBackgroundColor%3Ddefault%3BverticalAlign%3Dtop%3Baspect%3Dfixed%3BimageAspect%3D0%3Bimage%3Dhttps%3A%2F%2Fwww.svgrepo.com%2Fshow%2F448679%2Fvault.svg%3B%22%20vertex%3D%221%22%20parent%3D%222%22%3E%3CmxGeometry%20x%3D%2210%22%20y%3D%2211%22%20width%3D%2238%22%20height%3D%2238%22%20as%3D%22geometry%22%2F%3E%3C%2FmxCell%3E%3CmxCell%20id%3D%226%22%20value%3D%22%22%20style%3D%22rounded%3D1%3BwhiteSpace%3Dwrap%3Bhtml%3D1%3BfillColor%3D%23d5e8d4%3BstrokeColor%3D%2382b366%3Bopacity%3D25%3B%22%20vertex%3D%221%22%20parent%3D%222%22%3E%3CmxGeometry%20width%3D%22150%22%20height%3D%2260%22%20as%3D%22geometry%22%2F%3E%3C%2FmxCell%3E%3CmxCell%20id%3D%227%22%20value%3D%22App%22%20style%3D%22text%3Bhtml%3D1%3Balign%3Dcenter%3BverticalAlign%3Dmiddle%3BwhiteSpace%3Dwrap%3Brounded%3D0%3B%22%20vertex%3D%221%22%20parent%3D%222%22%3E%3CmxGeometry%20x%3D%2243%22%20y%3D%2262%22%20width%3D%2260%22%20height%3D%2230%22%20as%3D%22geometry%22%2F%3E%3C%2FmxCell%3E%3C%2Froot%3E%3C%2FmxGraphModel%3E&lt;/span&gt;" style="rounded=1;whiteSpace=wrap;html=1;fillColor=none;" vertex="1" parent="tNFwPxHahsIE7E5-N7TA-9">
          <mxGeometry width="56" height="170" as="geometry" />
        </mxCell>
        <mxCell id="HCVVwOArLGD4QxPOFx-8-1" value="" style="shape=image;verticalLabelPosition=bottom;labelBackgroundColor=default;verticalAlign=top;aspect=fixed;imageAspect=0;image=https://images.icon-icons.com/2699/PNG/512/haproxy_logo_icon_171017.png;" vertex="1" parent="tNFwPxHahsIE7E5-N7TA-9">
          <mxGeometry x="3" y="60" width="50" height="50" as="geometry" />
        </mxCell>
        <mxCell id="tNFwPxHahsIE7E5-N7TA-18" value="" style="group" vertex="1" connectable="0" parent="1">
          <mxGeometry x="474" y="148.5" width="56" height="65" as="geometry" />
        </mxCell>
        <mxCell id="tNFwPxHahsIE7E5-N7TA-13" value="&lt;span style=&quot;color: rgba(0, 0, 0, 0); font-family: monospace; font-size: 0px; text-align: start; text-wrap-mode: nowrap;&quot;&gt;%3CmxGraphModel%3E%3Croot%3E%3CmxCell%20id%3D%220%22%2F%3E%3CmxCell%20id%3D%221%22%20parent%3D%220%22%2F%3E%3CmxCell%20id%3D%222%22%20value%3D%22%22%20style%3D%22group%22%20vertex%3D%221%22%20connectable%3D%220%22%20parent%3D%221%22%3E%3CmxGeometry%20x%3D%22275%22%20y%3D%22130%22%20width%3D%22150%22%20height%3D%2292%22%20as%3D%22geometry%22%2F%3E%3C%2FmxCell%3E%3CmxCell%20id%3D%223%22%20value%3D%22%22%20style%3D%22shape%3Dimage%3BverticalLabelPosition%3Dbottom%3BlabelBackgroundColor%3Ddefault%3BverticalAlign%3Dtop%3Baspect%3Dfixed%3BimageAspect%3D0%3Bimage%3Dhttps%3A%2F%2Fglobal-uploads.webflow.com%2F6203daf47137054c031fa0e6%2F64071d4ee3e10617c9106129_consul.png%3BfontStyle%3D1%22%20vertex%3D%221%22%20parent%3D%222%22%3E%3CmxGeometry%20x%3D%2248%22%20y%3D%225%22%20width%3D%2250%22%20height%3D%2250%22%20as%3D%22geometry%22%2F%3E%3C%2FmxCell%3E%3CmxCell%20id%3D%224%22%20value%3D%22%22%20style%3D%22shape%3Dimage%3BverticalLabelPosition%3Dbottom%3BlabelBackgroundColor%3Ddefault%3BverticalAlign%3Dtop%3Baspect%3Dfixed%3BimageAspect%3D0%3Bimage%3Dhttps%3A%2F%2Fplmlab.math.cnrs.fr%2Fuploads%2F-%2Fsystem%2Fproject%2Favatar%2F1748%2Fnomad.png%3BfontStyle%3D1%22%20vertex%3D%221%22%20parent%3D%222%22%3E%3CmxGeometry%20x%3D%2298%22%20y%3D%2210%22%20width%3D%2240%22%20height%3D%2240%22%20as%3D%22geometry%22%2F%3E%3C%2FmxCell%3E%3CmxCell%20id%3D%225%22%20value%3D%22%22%20style%3D%22shape%3Dimage%3BverticalLabelPosition%3Dbottom%3BlabelBackgroundColor%3Ddefault%3BverticalAlign%3Dtop%3Baspect%3Dfixed%3BimageAspect%3D0%3Bimage%3Dhttps%3A%2F%2Fwww.svgrepo.com%2Fshow%2F448679%2Fvault.svg%3B%22%20vertex%3D%221%22%20parent%3D%222%22%3E%3CmxGeometry%20x%3D%2210%22%20y%3D%2211%22%20width%3D%2238%22%20height%3D%2238%22%20as%3D%22geometry%22%2F%3E%3C%2FmxCell%3E%3CmxCell%20id%3D%226%22%20value%3D%22%22%20style%3D%22rounded%3D1%3BwhiteSpace%3Dwrap%3Bhtml%3D1%3BfillColor%3D%23d5e8d4%3BstrokeColor%3D%2382b366%3Bopacity%3D25%3B%22%20vertex%3D%221%22%20parent%3D%222%22%3E%3CmxGeometry%20width%3D%22150%22%20height%3D%2260%22%20as%3D%22geometry%22%2F%3E%3C%2FmxCell%3E%3CmxCell%20id%3D%227%22%20value%3D%22App%22%20style%3D%22text%3Bhtml%3D1%3Balign%3Dcenter%3BverticalAlign%3Dmiddle%3BwhiteSpace%3Dwrap%3Brounded%3D0%3B%22%20vertex%3D%221%22%20parent%3D%222%22%3E%3CmxGeometry%20x%3D%2243%22%20y%3D%2262%22%20width%3D%2260%22%20height%3D%2230%22%20as%3D%22geometry%22%2F%3E%3C%2FmxCell%3E%3C%2Froot%3E%3C%2FmxGraphModel%3E&lt;/span&gt;" style="rounded=1;whiteSpace=wrap;html=1;fillColor=none;container=0;" vertex="1" parent="tNFwPxHahsIE7E5-N7TA-18">
          <mxGeometry width="56" height="65" as="geometry" />
        </mxCell>
        <mxCell id="tNFwPxHahsIE7E5-N7TA-2" value="" style="shape=image;verticalLabelPosition=bottom;labelBackgroundColor=default;verticalAlign=top;aspect=fixed;imageAspect=0;image=https://global-uploads.webflow.com/6203daf47137054c031fa0e6/64071d4ee3e10617c9106129_consul.png;fontStyle=1;container=0;" vertex="1" parent="tNFwPxHahsIE7E5-N7TA-18">
          <mxGeometry x="3" y="10" width="50" height="50" as="geometry" />
        </mxCell>
        <mxCell id="tNFwPxHahsIE7E5-N7TA-20" value="" style="rounded=1;whiteSpace=wrap;html=1;fillColor=none;" vertex="1" parent="1">
          <mxGeometry x="400" y="80" width="120" height="50" as="geometry" />
        </mxCell>
        <mxCell id="tNFwPxHahsIE7E5-N7TA-21" value="" style="rounded=1;whiteSpace=wrap;html=1;fillColor=none;" vertex="1" parent="1">
          <mxGeometry x="543" y="80" width="120" height="50" as="geometry" />
        </mxCell>
        <mxCell id="tNFwPxHahsIE7E5-N7TA-22" value="" style="rounded=1;whiteSpace=wrap;html=1;fillColor=none;" vertex="1" parent="1">
          <mxGeometry x="400" y="340" width="120" height="50" as="geometry" />
        </mxCell>
        <mxCell id="tNFwPxHahsIE7E5-N7TA-24" value="" style="rounded=1;whiteSpace=wrap;html=1;fillColor=none;rotation=-90;" vertex="1" parent="1">
          <mxGeometry x="538" y="156" width="64" height="50" as="geometry" />
        </mxCell>
        <mxCell id="tNFwPxHahsIE7E5-N7TA-25" value="" style="rounded=1;whiteSpace=wrap;html=1;fillColor=none;rotation=-90;" vertex="1" parent="1">
          <mxGeometry x="538" y="261" width="64" height="50" as="geometry" />
        </mxCell>
        <mxCell id="tNFwPxHahsIE7E5-N7TA-26" value="" style="shape=image;verticalLabelPosition=bottom;labelBackgroundColor=default;verticalAlign=top;aspect=fixed;imageAspect=0;image=https://images.icon-icons.com/2699/PNG/512/rabbitmq_logo_icon_170812.png;clipPath=inset(16.67% 2.67% 27.33% 2%);" vertex="1" parent="1">
          <mxGeometry x="407.86" y="90" width="102.14" height="30" as="geometry" />
        </mxCell>
        <mxCell id="tNFwPxHahsIE7E5-N7TA-27" value="" style="shape=image;verticalLabelPosition=bottom;labelBackgroundColor=default;verticalAlign=top;aspect=fixed;imageAspect=0;image=https://static-00.iconduck.com/assets.00/redis-original-wordmark-icon-2045x2048-nz2tg5u6.png;" vertex="1" parent="1">
          <mxGeometry x="583.03" y="85" width="39.93" height="40" as="geometry" />
        </mxCell>
        <mxCell id="tNFwPxHahsIE7E5-N7TA-12" value="&lt;span style=&quot;color: rgba(0, 0, 0, 0); font-family: monospace; font-size: 0px; text-align: start; text-wrap-mode: nowrap;&quot;&gt;%3CmxGraphModel%3E%3Croot%3E%3CmxCell%20id%3D%220%22%2F%3E%3CmxCell%20id%3D%221%22%20parent%3D%220%22%2F%3E%3CmxCell%20id%3D%222%22%20value%3D%22%22%20style%3D%22group%22%20vertex%3D%221%22%20connectable%3D%220%22%20parent%3D%221%22%3E%3CmxGeometry%20x%3D%22275%22%20y%3D%22130%22%20width%3D%22150%22%20height%3D%2292%22%20as%3D%22geometry%22%2F%3E%3C%2FmxCell%3E%3CmxCell%20id%3D%223%22%20value%3D%22%22%20style%3D%22shape%3Dimage%3BverticalLabelPosition%3Dbottom%3BlabelBackgroundColor%3Ddefault%3BverticalAlign%3Dtop%3Baspect%3Dfixed%3BimageAspect%3D0%3Bimage%3Dhttps%3A%2F%2Fglobal-uploads.webflow.com%2F6203daf47137054c031fa0e6%2F64071d4ee3e10617c9106129_consul.png%3BfontStyle%3D1%22%20vertex%3D%221%22%20parent%3D%222%22%3E%3CmxGeometry%20x%3D%2248%22%20y%3D%225%22%20width%3D%2250%22%20height%3D%2250%22%20as%3D%22geometry%22%2F%3E%3C%2FmxCell%3E%3CmxCell%20id%3D%224%22%20value%3D%22%22%20style%3D%22shape%3Dimage%3BverticalLabelPosition%3Dbottom%3BlabelBackgroundColor%3Ddefault%3BverticalAlign%3Dtop%3Baspect%3Dfixed%3BimageAspect%3D0%3Bimage%3Dhttps%3A%2F%2Fplmlab.math.cnrs.fr%2Fuploads%2F-%2Fsystem%2Fproject%2Favatar%2F1748%2Fnomad.png%3BfontStyle%3D1%22%20vertex%3D%221%22%20parent%3D%222%22%3E%3CmxGeometry%20x%3D%2298%22%20y%3D%2210%22%20width%3D%2240%22%20height%3D%2240%22%20as%3D%22geometry%22%2F%3E%3C%2FmxCell%3E%3CmxCell%20id%3D%225%22%20value%3D%22%22%20style%3D%22shape%3Dimage%3BverticalLabelPosition%3Dbottom%3BlabelBackgroundColor%3Ddefault%3BverticalAlign%3Dtop%3Baspect%3Dfixed%3BimageAspect%3D0%3Bimage%3Dhttps%3A%2F%2Fwww.svgrepo.com%2Fshow%2F448679%2Fvault.svg%3B%22%20vertex%3D%221%22%20parent%3D%222%22%3E%3CmxGeometry%20x%3D%2210%22%20y%3D%2211%22%20width%3D%2238%22%20height%3D%2238%22%20as%3D%22geometry%22%2F%3E%3C%2FmxCell%3E%3CmxCell%20id%3D%226%22%20value%3D%22%22%20style%3D%22rounded%3D1%3BwhiteSpace%3Dwrap%3Bhtml%3D1%3BfillColor%3D%23d5e8d4%3BstrokeColor%3D%2382b366%3Bopacity%3D25%3B%22%20vertex%3D%221%22%20parent%3D%222%22%3E%3CmxGeometry%20width%3D%22150%22%20height%3D%2260%22%20as%3D%22geometry%22%2F%3E%3C%2FmxCell%3E%3CmxCell%20id%3D%227%22%20value%3D%22App%22%20style%3D%22text%3Bhtml%3D1%3Balign%3Dcenter%3BverticalAlign%3Dmiddle%3BwhiteSpace%3Dwrap%3Brounded%3D0%3B%22%20vertex%3D%221%22%20parent%3D%222%22%3E%3CmxGeometry%20x%3D%2243%22%20y%3D%2262%22%20width%3D%2260%22%20height%3D%2230%22%20as%3D%22geometry%22%2F%3E%3C%2FmxCell%3E%3C%2Froot%3E%3C%2FmxGraphModel%3E&lt;/span&gt;" style="rounded=1;whiteSpace=wrap;html=1;fillColor=none;container=0;" vertex="1" parent="1">
          <mxGeometry x="474" y="253.5" width="56" height="65" as="geometry" />
        </mxCell>
        <mxCell id="tNFwPxHahsIE7E5-N7TA-3" value="" style="shape=image;verticalLabelPosition=bottom;labelBackgroundColor=default;verticalAlign=top;aspect=fixed;imageAspect=0;image=https://plmlab.math.cnrs.fr/uploads/-/system/project/avatar/1748/nomad.png;fontStyle=1;container=0;" vertex="1" parent="1">
          <mxGeometry x="482" y="266" width="40" height="40" as="geometry" />
        </mxCell>
        <mxCell id="tNFwPxHahsIE7E5-N7TA-28" value="" style="shape=image;verticalLabelPosition=bottom;labelBackgroundColor=default;verticalAlign=top;aspect=fixed;imageAspect=0;image=https://static-00.iconduck.com/assets.00/kafka-icon-512x234-uqez3fj8.png;" vertex="1" parent="1">
          <mxGeometry x="565.1800000000001" y="350" width="65.64" height="30" as="geometry" />
        </mxCell>
        <mxCell id="tNFwPxHahsIE7E5-N7TA-29" value="" style="shape=image;verticalLabelPosition=bottom;labelBackgroundColor=default;verticalAlign=top;aspect=fixed;imageAspect=0;image=https://img.icons8.com/color/600/elasticsearch.png;clipPath=inset(7% 6.67% 7.33% 7.33%);" vertex="1" parent="1">
          <mxGeometry x="438.85" y="345" width="40.16" height="40" as="geometry" />
        </mxCell>
        <mxCell id="tNFwPxHahsIE7E5-N7TA-30" value="" style="shape=image;verticalLabelPosition=bottom;labelBackgroundColor=default;verticalAlign=top;aspect=fixed;imageAspect=0;image=https://cdn-icons-png.flaticon.com/512/5968/5968364.png;" vertex="1" parent="1">
          <mxGeometry x="550" y="161" width="40" height="40" as="geometry" />
        </mxCell>
        <mxCell id="tNFwPxHahsIE7E5-N7TA-31" value="" style="shape=image;verticalLabelPosition=bottom;labelBackgroundColor=default;verticalAlign=top;aspect=fixed;imageAspect=0;image=https://cdn.worldvectorlogo.com/logos/mongodb-icon-1.svg;clipPath=inset(13.33% 33.33% 5.67% 24.33%);" vertex="1" parent="1">
          <mxGeometry x="554.3199999999999" y="256" width="31.36" height="60" as="geometry" />
        </mxCell>
        <mxCell id="tNFwPxHahsIE7E5-N7TA-32" value="" style="curved=1;endArrow=classic;html=1;rounded=0;exitX=1;exitY=0.5;exitDx=0;exitDy=0;entryX=0;entryY=0.5;entryDx=0;entryDy=0;" edge="1" parent="1" source="6gbyXBsQ23gUGzirkuGh-1" target="tNFwPxHahsIE7E5-N7TA-7">
          <mxGeometry width="50" height="50" relative="1" as="geometry">
            <mxPoint x="90" y="260" as="sourcePoint" />
            <mxPoint x="140" y="210" as="targetPoint" />
            <Array as="points">
              <mxPoint x="140" y="260" />
              <mxPoint x="90" y="210" />
            </Array>
          </mxGeometry>
        </mxCell>
        <mxCell id="tNFwPxHahsIE7E5-N7TA-34" value="*.staging.kvpos.com:443" style="text;html=1;align=center;verticalAlign=middle;whiteSpace=wrap;rounded=0;" vertex="1" parent="1">
          <mxGeometry x="90" y="190" width="60" height="30" as="geometry" />
        </mxCell>
        <mxCell id="tNFwPxHahsIE7E5-N7TA-43" value="Third Party" style="text;html=1;align=center;verticalAlign=middle;whiteSpace=wrap;rounded=0;rotation=90;" vertex="1" parent="1">
          <mxGeometry x="631" y="173.25" width="76.5" height="15.5" as="geometry" />
        </mxCell>
        <mxCell id="tNFwPxHahsIE7E5-N7TA-44" value="" style="curved=1;endArrow=classic;html=1;rounded=0;exitX=1;exitY=0.5;exitDx=0;exitDy=0;entryX=0;entryY=0.25;entryDx=0;entryDy=0;" edge="1" parent="1" source="tNFwPxHahsIE7E5-N7TA-7" target="tNFwPxHahsIE7E5-N7TA-10">
          <mxGeometry width="50" height="50" relative="1" as="geometry">
            <mxPoint x="320" y="250" as="sourcePoint" />
            <mxPoint x="370" y="200" as="targetPoint" />
            <Array as="points">
              <mxPoint x="320" y="200" />
            </Array>
          </mxGeometry>
        </mxCell>
        <mxCell id="tNFwPxHahsIE7E5-N7TA-45" value="" style="curved=1;endArrow=classic;html=1;rounded=0;entryX=-0.009;entryY=0.659;entryDx=0;entryDy=0;entryPerimeter=0;exitX=1;exitY=0.5;exitDx=0;exitDy=0;" edge="1" parent="1" source="tNFwPxHahsIE7E5-N7TA-7" target="tNFwPxHahsIE7E5-N7TA-10">
          <mxGeometry width="50" height="50" relative="1" as="geometry">
            <mxPoint x="300" y="260" as="sourcePoint" />
            <mxPoint x="414" y="263" as="targetPoint" />
            <Array as="points">
              <mxPoint x="340" y="262" />
            </Array>
          </mxGeometry>
        </mxCell>
        <mxCell id="tNFwPxHahsIE7E5-N7TA-46" value="facing:44302" style="text;html=1;align=center;verticalAlign=middle;whiteSpace=wrap;rounded=0;rotation=-15;" vertex="1" parent="1">
          <mxGeometry x="290.52" y="169.93" width="80" height="26" as="geometry" />
        </mxCell>
        <mxCell id="tNFwPxHahsIE7E5-N7TA-47" value="backend:44304" style="text;html=1;align=center;verticalAlign=middle;whiteSpace=wrap;rounded=0;rotation=15;" vertex="1" parent="1">
          <mxGeometry x="280.0016806378955" y="260.99979754585877" width="80" height="26" as="geometry" />
        </mxCell>
        <mxCell id="tNFwPxHahsIE7E5-N7TA-40" value="&lt;span style=&quot;color: rgba(0, 0, 0, 0); font-family: monospace; font-size: 0px; text-align: start; text-wrap-mode: nowrap;&quot;&gt;%3CmxGraphModel%3E%3Croot%3E%3CmxCell%20id%3D%220%22%2F%3E%3CmxCell%20id%3D%221%22%20parent%3D%220%22%2F%3E%3CmxCell%20id%3D%222%22%20value%3D%22%22%20style%3D%22group%22%20vertex%3D%221%22%20connectable%3D%220%22%20parent%3D%221%22%3E%3CmxGeometry%20x%3D%22275%22%20y%3D%22130%22%20width%3D%22150%22%20height%3D%2292%22%20as%3D%22geometry%22%2F%3E%3C%2FmxCell%3E%3CmxCell%20id%3D%223%22%20value%3D%22%22%20style%3D%22shape%3Dimage%3BverticalLabelPosition%3Dbottom%3BlabelBackgroundColor%3Ddefault%3BverticalAlign%3Dtop%3Baspect%3Dfixed%3BimageAspect%3D0%3Bimage%3Dhttps%3A%2F%2Fglobal-uploads.webflow.com%2F6203daf47137054c031fa0e6%2F64071d4ee3e10617c9106129_consul.png%3BfontStyle%3D1%22%20vertex%3D%221%22%20parent%3D%222%22%3E%3CmxGeometry%20x%3D%2248%22%20y%3D%225%22%20width%3D%2250%22%20height%3D%2250%22%20as%3D%22geometry%22%2F%3E%3C%2FmxCell%3E%3CmxCell%20id%3D%224%22%20value%3D%22%22%20style%3D%22shape%3Dimage%3BverticalLabelPosition%3Dbottom%3BlabelBackgroundColor%3Ddefault%3BverticalAlign%3Dtop%3Baspect%3Dfixed%3BimageAspect%3D0%3Bimage%3Dhttps%3A%2F%2Fplmlab.math.cnrs.fr%2Fuploads%2F-%2Fsystem%2Fproject%2Favatar%2F1748%2Fnomad.png%3BfontStyle%3D1%22%20vertex%3D%221%22%20parent%3D%222%22%3E%3CmxGeometry%20x%3D%2298%22%20y%3D%2210%22%20width%3D%2240%22%20height%3D%2240%22%20as%3D%22geometry%22%2F%3E%3C%2FmxCell%3E%3CmxCell%20id%3D%225%22%20value%3D%22%22%20style%3D%22shape%3Dimage%3BverticalLabelPosition%3Dbottom%3BlabelBackgroundColor%3Ddefault%3BverticalAlign%3Dtop%3Baspect%3Dfixed%3BimageAspect%3D0%3Bimage%3Dhttps%3A%2F%2Fwww.svgrepo.com%2Fshow%2F448679%2Fvault.svg%3B%22%20vertex%3D%221%22%20parent%3D%222%22%3E%3CmxGeometry%20x%3D%2210%22%20y%3D%2211%22%20width%3D%2238%22%20height%3D%2238%22%20as%3D%22geometry%22%2F%3E%3C%2FmxCell%3E%3CmxCell%20id%3D%226%22%20value%3D%22%22%20style%3D%22rounded%3D1%3BwhiteSpace%3Dwrap%3Bhtml%3D1%3BfillColor%3D%23d5e8d4%3BstrokeColor%3D%2382b366%3Bopacity%3D25%3B%22%20vertex%3D%221%22%20parent%3D%222%22%3E%3CmxGeometry%20width%3D%22150%22%20height%3D%2260%22%20as%3D%22geometry%22%2F%3E%3C%2FmxCell%3E%3CmxCell%20id%3D%227%22%20value%3D%22App%22%20style%3D%22text%3Bhtml%3D1%3Balign%3Dcenter%3BverticalAlign%3Dmiddle%3BwhiteSpace%3Dwrap%3Brounded%3D0%3B%22%20vertex%3D%221%22%20parent%3D%222%22%3E%3CmxGeometry%20x%3D%2243%22%20y%3D%2262%22%20width%3D%2260%22%20height%3D%2230%22%20as%3D%22geometry%22%2F%3E%3C%2FmxCell%3E%3C%2Froot%3E%3C%2FmxGraphModel%3E&lt;/span&gt;" style="rounded=1;whiteSpace=wrap;html=1;fillColor=none;" vertex="1" parent="1">
          <mxGeometry x="607" y="150.25" width="56" height="61.5" as="geometry" />
        </mxCell>
        <mxCell id="tNFwPxHahsIE7E5-N7TA-37" value="" style="shape=image;verticalLabelPosition=bottom;labelBackgroundColor=default;verticalAlign=top;aspect=fixed;imageAspect=0;image=https://cdn-icons-png.flaticon.com/512/10008/10008134.png;" vertex="1" parent="1">
          <mxGeometry x="615" y="161" width="40" height="40" as="geometry" />
        </mxCell>
        <mxCell id="tNFwPxHahsIE7E5-N7TA-48" value="&lt;span style=&quot;color: rgba(0, 0, 0, 0); font-family: monospace; font-size: 0px; text-align: start; text-wrap-mode: nowrap;&quot;&gt;%3CmxGraphModel%3E%3Croot%3E%3CmxCell%20id%3D%220%22%2F%3E%3CmxCell%20id%3D%221%22%20parent%3D%220%22%2F%3E%3CmxCell%20id%3D%222%22%20value%3D%22%22%20style%3D%22group%22%20vertex%3D%221%22%20connectable%3D%220%22%20parent%3D%221%22%3E%3CmxGeometry%20x%3D%22275%22%20y%3D%22130%22%20width%3D%22150%22%20height%3D%2292%22%20as%3D%22geometry%22%2F%3E%3C%2FmxCell%3E%3CmxCell%20id%3D%223%22%20value%3D%22%22%20style%3D%22shape%3Dimage%3BverticalLabelPosition%3Dbottom%3BlabelBackgroundColor%3Ddefault%3BverticalAlign%3Dtop%3Baspect%3Dfixed%3BimageAspect%3D0%3Bimage%3Dhttps%3A%2F%2Fglobal-uploads.webflow.com%2F6203daf47137054c031fa0e6%2F64071d4ee3e10617c9106129_consul.png%3BfontStyle%3D1%22%20vertex%3D%221%22%20parent%3D%222%22%3E%3CmxGeometry%20x%3D%2248%22%20y%3D%225%22%20width%3D%2250%22%20height%3D%2250%22%20as%3D%22geometry%22%2F%3E%3C%2FmxCell%3E%3CmxCell%20id%3D%224%22%20value%3D%22%22%20style%3D%22shape%3Dimage%3BverticalLabelPosition%3Dbottom%3BlabelBackgroundColor%3Ddefault%3BverticalAlign%3Dtop%3Baspect%3Dfixed%3BimageAspect%3D0%3Bimage%3Dhttps%3A%2F%2Fplmlab.math.cnrs.fr%2Fuploads%2F-%2Fsystem%2Fproject%2Favatar%2F1748%2Fnomad.png%3BfontStyle%3D1%22%20vertex%3D%221%22%20parent%3D%222%22%3E%3CmxGeometry%20x%3D%2298%22%20y%3D%2210%22%20width%3D%2240%22%20height%3D%2240%22%20as%3D%22geometry%22%2F%3E%3C%2FmxCell%3E%3CmxCell%20id%3D%225%22%20value%3D%22%22%20style%3D%22shape%3Dimage%3BverticalLabelPosition%3Dbottom%3BlabelBackgroundColor%3Ddefault%3BverticalAlign%3Dtop%3Baspect%3Dfixed%3BimageAspect%3D0%3Bimage%3Dhttps%3A%2F%2Fwww.svgrepo.com%2Fshow%2F448679%2Fvault.svg%3B%22%20vertex%3D%221%22%20parent%3D%222%22%3E%3CmxGeometry%20x%3D%2210%22%20y%3D%2211%22%20width%3D%2238%22%20height%3D%2238%22%20as%3D%22geometry%22%2F%3E%3C%2FmxCell%3E%3CmxCell%20id%3D%226%22%20value%3D%22%22%20style%3D%22rounded%3D1%3BwhiteSpace%3Dwrap%3Bhtml%3D1%3BfillColor%3D%23d5e8d4%3BstrokeColor%3D%2382b366%3Bopacity%3D25%3B%22%20vertex%3D%221%22%20parent%3D%222%22%3E%3CmxGeometry%20width%3D%22150%22%20height%3D%2260%22%20as%3D%22geometry%22%2F%3E%3C%2FmxCell%3E%3CmxCell%20id%3D%227%22%20value%3D%22App%22%20style%3D%22text%3Bhtml%3D1%3Balign%3Dcenter%3BverticalAlign%3Dmiddle%3BwhiteSpace%3Dwrap%3Brounded%3D0%3B%22%20vertex%3D%221%22%20parent%3D%222%22%3E%3CmxGeometry%20x%3D%2243%22%20y%3D%2262%22%20width%3D%2260%22%20height%3D%2230%22%20as%3D%22geometry%22%2F%3E%3C%2FmxCell%3E%3C%2Froot%3E%3C%2FmxGraphModel%3E&lt;/span&gt;" style="rounded=1;whiteSpace=wrap;html=1;fillColor=none;" vertex="1" parent="1">
          <mxGeometry x="607" y="253.5" width="56" height="61.5" as="geometry" />
        </mxCell>
        <mxCell id="tNFwPxHahsIE7E5-N7TA-59" value="" style="shape=image;verticalLabelPosition=bottom;labelBackgroundColor=default;verticalAlign=top;aspect=fixed;imageAspect=0;image=https://cdn-icons-png.flaticon.com/512/6410/6410490.png;" vertex="1" parent="1">
          <mxGeometry x="618" y="267.25" width="34" height="34" as="geometry" />
        </mxCell>
      </root>
    </mxGraphModel>
  </diagram>
</mxfile>
